<?xml version="1.0" encoding="UTF-8"?>
<svg version="1.1" xmlns="http://www.w3.org/2000/svg" width="191" height="88">
<path d="M0 0 C63.03 0 126.06 0 191 0 C191 29.04 191 58.08 191 88 C127.97 88 64.94 88 0 88 C0 58.96 0 29.92 0 0 Z " fill="#FCFCFC" transform="translate(0,0)"/>
<path d="M0 0 C1.37504315 0.01775886 2.75005294 0.03842505 4.125 0.0625 C5.115 0.0625 6.105 0.0625 7.125 0.0625 C8.115 0.0625 9.105 0.0625 10.125 0.0625 C10.455 1.0525 10.785 2.0425 11.125 3.0625 C11.640625 2.546875 12.15625 2.03125 12.6875 1.5 C15.125 0.0625 15.125 0.0625 18.625 0.125 C22.35132646 1.12312316 23.74053955 2.10576904 26.125 5.0625 C26.455 3.7425 26.785 2.4225 27.125 1.0625 C29.39524968 0.98152676 31.66632075 0.92332296 33.9375 0.875 C35.20207031 0.84019531 36.46664062 0.80539063 37.76953125 0.76953125 C41.125 1.0625 41.125 1.0625 43.0625 2.15625 C44.66684575 5.03463503 44.40935886 7.48908514 44.3125 10.75 C44.27189453 12.51923828 44.27189453 12.51923828 44.23046875 14.32421875 C44.19566406 15.22785156 44.16085938 16.13148437 44.125 17.0625 C42.805 17.0625 41.485 17.0625 40.125 17.0625 C40.125 20.3625 40.125 23.6625 40.125 27.0625 C41.115 27.0625 42.105 27.0625 43.125 27.0625 C43.125 25.0825 43.125 23.1025 43.125 21.0625 C46.095 21.0625 49.065 21.0625 52.125 21.0625 C52.125 22.7125 52.125 24.3625 52.125 26.0625 C53.775 26.0625 55.425 26.0625 57.125 26.0625 C57.125 28.3725 57.125 30.6825 57.125 33.0625 C55.475 33.0625 53.825 33.0625 52.125 33.0625 C52.125 36.3625 52.125 39.6625 52.125 43.0625 C53.775 43.0625 55.425 43.0625 57.125 43.0625 C57.24875 42.27875 57.3725 41.495 57.5 40.6875 C58.125 38.0625 58.125 38.0625 60.125 36.0625 C63.7169305 34.73215537 67.33970013 34.98970577 71.125 35.0625 C70.795 34.4025 70.465 33.7425 70.125 33.0625 C66.825 33.0625 63.525 33.0625 60.125 33.0625 C59.135 30.5875 59.135 30.5875 58.125 28.0625 C61.64539707 25.71556862 63.32557009 25.73526236 67.5 25.6875 C68.62148437 25.65914062 69.74296875 25.63078125 70.8984375 25.6015625 C74.75996496 26.15320928 76.36627551 27.36396586 79.125 30.0625 C80.77997356 33.37244713 80.22584335 37.05373 80.1875 40.6875 C80.18298828 41.48929688 80.17847656 42.29109375 80.17382812 43.1171875 C80.16203168 45.09899006 80.14409605 47.08075433 80.125 49.0625 C76.79166667 49.0625 73.45833333 49.0625 70.125 49.0625 C69.10599609 49.07990234 69.10599609 49.07990234 68.06640625 49.09765625 C67.28136719 49.10667969 66.49632813 49.11570313 65.6875 49.125 C64.51380859 49.14240234 64.51380859 49.14240234 63.31640625 49.16015625 C61.125 49.0625 61.125 49.0625 58.125 48.0625 C57.795 48.3925 57.465 48.7225 57.125 49.0625 C53.01189536 49.4963366 49.32939164 49.69480561 45.625 47.75 C42.91154572 44.69736393 43.01194937 41.76739836 43.0625 37.875 C43.07152344 36.97394531 43.08054688 36.07289062 43.08984375 35.14453125 C43.10144531 34.45746094 43.11304688 33.77039062 43.125 33.0625 C42.135 33.0625 41.145 33.0625 40.125 33.0625 C40.125 38.3425 40.125 43.6225 40.125 49.0625 C34.515 49.0625 28.905 49.0625 23.125 49.0625 C23.125 48.4025 23.125 47.7425 23.125 47.0625 C22.135 47.7225 21.145 48.3825 20.125 49.0625 C17.08141721 49.54454074 14.1700401 49.53519576 11.125 49.0625 C8.5625 47.0625 8.5625 47.0625 7.125 45.0625 C6.691875 45.536875 6.25875 46.01125 5.8125 46.5 C2.40312776 49.65682615 -1.39573455 49.22682704 -5.8125 49.25 C-7.03839844 49.26417969 -8.26429687 49.27835938 -9.52734375 49.29296875 C-12.63143812 49.07926797 -14.28862551 48.70248182 -16.875 47.0625 C-16.5 44.125 -16.5 44.125 -15.875 41.0625 C-14.885 40.5675 -14.885 40.5675 -13.875 40.0625 C-13.28203125 40.36929688 -12.6890625 40.67609375 -12.078125 40.9921875 C-9.41486319 42.28604164 -7.56752989 42.264935 -4.625 42.1875 C-3.28695312 42.16042969 -3.28695312 42.16042969 -1.921875 42.1328125 C-1.24640625 42.10960937 -0.5709375 42.08640625 0.125 42.0625 C0.125 41.0725 0.125 40.0825 0.125 39.0625 C-1.08736328 38.82466797 -1.08736328 38.82466797 -2.32421875 38.58203125 C-13.57862013 36.12479766 -13.57862013 36.12479766 -16.875 31.0625 C-17.60297045 27.17999093 -17.24836509 25.64921657 -15.125 22.3125 C-13.07120268 20.25870268 -11.55095462 19.11376788 -8.875 18.0625 C-9.535 17.7325 -10.195 17.4025 -10.875 17.0625 C-10.875 11.7825 -10.875 6.5025 -10.875 1.0625 C-8.895 1.0625 -6.915 1.0625 -4.875 1.0625 C-3.875 0.0625 -3.875 0.0625 0 0 Z " fill="#F1F1F1" transform="translate(50.875,16.9375)"/>
<path d="M0 0 C13.34916271 -0.36740815 13.34916271 -0.36740815 15.9375 1.09375 C17.54184575 3.97213503 17.28435886 6.42658514 17.1875 9.6875 C17.16042969 10.86699219 17.13335937 12.04648437 17.10546875 13.26171875 C17.07066406 14.16535156 17.03585938 15.06898437 17 16 C15.68 16 14.36 16 13 16 C13 19.3 13 22.6 13 26 C13.99 26 14.98 26 16 26 C16 24.02 16 22.04 16 20 C18.97 20 21.94 20 25 20 C25 21.65 25 23.3 25 25 C26.65 25 28.3 25 30 25 C30 27.31 30 29.62 30 32 C28.35 32 26.7 32 25 32 C25 35.3 25 38.6 25 42 C26.65 42 28.3 42 30 42 C30.12375 41.21625 30.2475 40.4325 30.375 39.625 C31 37 31 37 33 35 C36.5919305 33.66965537 40.21470013 33.92720577 44 34 C43.67 33.34 43.34 32.68 43 32 C39.7 32 36.4 32 33 32 C32.34 30.35 31.68 28.7 31 27 C34.52039707 24.65306862 36.20057009 24.67276236 40.375 24.625 C41.49648437 24.59664062 42.61796875 24.56828125 43.7734375 24.5390625 C47.63496496 25.09070928 49.24127551 26.30146586 52 29 C53.65497356 32.30994713 53.10084335 35.99123 53.0625 39.625 C53.05798828 40.42679688 53.05347656 41.22859375 53.04882812 42.0546875 C53.03703168 44.03649006 53.01909605 46.01825433 53 48 C49.66666667 48 46.33333333 48 43 48 C41.98099609 48.01740234 41.98099609 48.01740234 40.94140625 48.03515625 C40.15636719 48.04417969 39.37132812 48.05320313 38.5625 48.0625 C37.78003906 48.07410156 36.99757812 48.08570313 36.19140625 48.09765625 C34 48 34 48 31 47 C30.67 47.33 30.34 47.66 30 48 C25.88689536 48.4338366 22.20439164 48.63230561 18.5 46.6875 C15.78654572 43.63486393 15.88694937 40.70489836 15.9375 36.8125 C15.94652344 35.91144531 15.95554687 35.01039062 15.96484375 34.08203125 C15.97644531 33.39496094 15.98804687 32.70789062 16 32 C15.01 32 14.02 32 13 32 C13 37.28 13 42.56 13 48 C10.36 48 7.72 48 5 48 C5 37.44 5 26.88 5 16 C3.35 16 1.7 16 0 16 C0 10.72 0 5.44 0 0 Z " fill="#0A0A0A" transform="translate(78,18)"/>
<path d="M0 0 C1.23492187 -0.01417969 2.46984375 -0.02835938 3.7421875 -0.04296875 C6.86586712 0.16984545 8.52561596 0.53512774 11.125 2.1875 C10.465 4.1675 9.805 6.1475 9.125 8.1875 C5.165 7.8575 1.205 7.5275 -2.875 7.1875 C-3.205 8.1775 -3.535 9.1675 -3.875 10.1875 C-3.15054688 10.34605469 -2.42609375 10.50460938 -1.6796875 10.66796875 C4.53868907 12.1686703 8.58402441 13.64652441 13.125 18.1875 C13.68703125 17.86007813 14.2490625 17.53265625 14.828125 17.1953125 C17.39359964 16.06964506 19.09342277 15.9806889 21.875 16.0625 C22.67421875 16.08054687 23.4734375 16.09859375 24.296875 16.1171875 C24.90015625 16.14039063 25.5034375 16.16359375 26.125 16.1875 C25.63 15.1975 25.63 15.1975 25.125 14.1875 C21.495 14.1875 17.865 14.1875 14.125 14.1875 C13.795 12.2075 13.465 10.2275 13.125 8.1875 C15.92607012 6.78696494 18.31391681 6.9799496 21.4375 6.9375 C23.13326172 6.89882813 23.13326172 6.89882813 24.86328125 6.859375 C28.43770151 7.2189574 30.27310326 8.04727877 33.125 10.1875 C34.2732685 12.484037 34.24061175 13.77063167 34.22265625 16.3203125 C34.21943359 17.12597656 34.21621094 17.93164062 34.21289062 18.76171875 C34.20032227 20.02435547 34.20032227 20.02435547 34.1875 21.3125 C34.18298828 22.16199219 34.17847656 23.01148437 34.17382812 23.88671875 C34.16202874 25.98700909 34.14409306 28.0872633 34.125 30.1875 C31.815 30.1875 29.505 30.1875 27.125 30.1875 C27.125 29.5275 27.125 28.8675 27.125 28.1875 C26.135 28.8475 25.145 29.5075 24.125 30.1875 C21.08141721 30.66954074 18.1700401 30.66019576 15.125 30.1875 C12.5625 28.1875 12.5625 28.1875 11.125 26.1875 C10.691875 26.661875 10.25875 27.13625 9.8125 27.625 C6.40312776 30.78182615 2.60426545 30.35182704 -1.8125 30.375 C-3.03839844 30.38917969 -4.26429687 30.40335938 -5.52734375 30.41796875 C-8.63143812 30.20426797 -10.28862551 29.82748182 -12.875 28.1875 C-12.5 25.25 -12.5 25.25 -11.875 22.1875 C-11.215 21.8575 -10.555 21.5275 -9.875 21.1875 C-9.28203125 21.49429688 -8.6890625 21.80109375 -8.078125 22.1171875 C-5.41486319 23.41104164 -3.56752989 23.389935 -0.625 23.3125 C0.71304688 23.28542969 0.71304688 23.28542969 2.078125 23.2578125 C2.75359375 23.23460938 3.4290625 23.21140625 4.125 23.1875 C4.125 22.1975 4.125 21.2075 4.125 20.1875 C2.91263672 19.94966797 2.91263672 19.94966797 1.67578125 19.70703125 C-9.57862013 17.24979766 -9.57862013 17.24979766 -12.875 12.1875 C-13.6196324 8.21612719 -13.24766878 6.74650317 -11 3.375 C-7.44499914 -0.2845597 -5.00520449 0.02601458 0 0 Z " fill="#080808" transform="translate(46.875,35.8125)"/>
<path d="M0 0 C3.4375 0.9375 3.4375 0.9375 6.125 2.1875 C6.888125 2.435 7.65125 2.6825 8.4375 2.9375 C9.015 2.463125 9.5925 1.98875 10.1875 1.5 C13.76020125 -0.98104253 17.31836618 0.20696986 21.4375 0.9375 C21.1075 2.2575 20.7775 3.5775 20.4375 4.9375 C18.1275 4.9375 15.8175 4.9375 13.4375 4.9375 C13.4375 5.2675 13.4375 5.5975 13.4375 5.9375 C15.7475 6.5975 18.0575 7.2575 20.4375 7.9375 C21.035625 6.98875 21.63375 6.04 22.25 5.0625 C24.4375 1.9375 24.4375 1.9375 27.4375 -0.0625 C31.51603495 0.08581036 33.724924 0.33455108 36.875 3 C37.6484375 3.9590625 37.6484375 3.9590625 38.4375 4.9375 C38.7675 3.2875 39.0975 1.6375 39.4375 -0.0625 C42.10416667 -0.0625 44.77083333 -0.0625 47.4375 -0.0625 C48.6440625 -0.18625 48.6440625 -0.18625 49.875 -0.3125 C52.4375 -0.0625 52.4375 -0.0625 54.58203125 1.53125 C57.05036059 4.73228341 56.847161 6.69597504 56.6875 10.6875 C56.65140625 11.85796875 56.6153125 13.0284375 56.578125 14.234375 C56.53171875 15.12640625 56.4853125 16.0184375 56.4375 16.9375 C54.7875 16.9375 53.1375 16.9375 51.4375 16.9375 C51.4375 12.9775 51.4375 9.0175 51.4375 4.9375 C49.4575 4.9375 47.4775 4.9375 45.4375 4.9375 C45.1075 8.8975 44.7775 12.8575 44.4375 16.9375 C42.7875 16.9375 41.1375 16.9375 39.4375 16.9375 C39.4375 14.6275 39.4375 12.3175 39.4375 9.9375 C33.4975 10.4325 33.4975 10.4325 27.4375 10.9375 C27.9325 11.4325 27.9325 11.4325 28.4375 11.9375 C29.571875 11.89625 30.70625 11.855 31.875 11.8125 C33.050625 11.85375 34.22625 11.895 35.4375 11.9375 C36.0975 12.9275 36.7575 13.9175 37.4375 14.9375 C35.03299822 17.34200178 34.35516058 17.23359139 31.0625 17.25 C27.92208455 17.19437267 26.64104584 17.05664878 23.875 15.4375 C23.400625 14.9425 22.92625 14.4475 22.4375 13.9375 C21.963125 14.4325 21.48875 14.9275 21 15.4375 C17.23391649 17.64203669 13.70290621 17.18358113 9.4375 16.9375 C9.1075 15.6175 8.7775 14.2975 8.4375 12.9375 C11.0775 12.9375 13.7175 12.9375 16.4375 12.9375 C16.7675 12.2775 17.0975 11.6175 17.4375 10.9375 C16.32375 10.793125 15.21 10.64875 14.0625 10.5 C10.4375 9.9375 10.4375 9.9375 8.4375 8.9375 C8.169375 9.700625 7.90125 10.46375 7.625 11.25 C5.76258073 15.46494887 5.76258073 15.46494887 3.4375 16.9375 C-1.48474114 17.57262789 -3.44637501 17.70483593 -7.5625 14.875 C-9.5625 11.9375 -9.5625 11.9375 -10.25 8.4375 C-9.5625 4.9375 -9.5625 4.9375 -7 1.9375 C-3.5625 -0.0625 -3.5625 -0.0625 0 0 Z " fill="#1F1F1F" transform="translate(105.5625,17.0625)"/>
<path d="M0 0 C1.12148437 -0.02835938 2.24296875 -0.05671875 3.3984375 -0.0859375 C7.25996496 0.46570928 8.86627551 1.67646586 11.625 4.375 C13.27997356 7.68494713 12.72584335 11.36623 12.6875 15 C12.68298828 15.80179688 12.67847656 16.60359375 12.67382812 17.4296875 C12.66203168 19.41149006 12.64409605 21.39325433 12.625 23.375 C9.29166667 23.375 5.95833333 23.375 2.625 23.375 C1.95726563 23.39820312 1.28953125 23.42140625 0.6015625 23.4453125 C-0.17445312 23.46335937 -0.95046875 23.48140625 -1.75 23.5 C-2.52085938 23.52320312 -3.29171875 23.54640625 -4.0859375 23.5703125 C-6.64725576 23.35176999 -8.20519033 22.73353128 -10.375 21.375 C-11.65267412 18.72838932 -11.43566019 17.57097906 -10.5625 14.75 C-9.30835821 12.24171642 -8.37355024 10.74483342 -5.6875 9.75 C-2.5692318 9.24433489 0.47251464 9.31437528 3.625 9.375 C3.295 8.715 2.965 8.055 2.625 7.375 C-0.675 7.375 -3.975 7.375 -7.375 7.375 C-8.035 5.725 -8.695 4.075 -9.375 2.375 C-5.85460293 0.02806862 -4.17442991 0.04776236 0 0 Z " fill="#0B0B0B" transform="translate(118.375,42.625)"/>
<path d="M0 0 C1.37504315 0.01775886 2.75005294 0.03842505 4.125 0.0625 C5.115 0.0625 6.105 0.0625 7.125 0.0625 C8.115 0.0625 9.105 0.0625 10.125 0.0625 C10.455 1.0525 10.785 2.0425 11.125 3.0625 C11.640625 2.546875 12.15625 2.03125 12.6875 1.5 C15.125 0.0625 15.125 0.0625 18.625 0.125 C22.42084033 1.14174295 23.89739582 1.85474998 26.125 5.0625 C26.125 6.7125 26.125 8.3625 26.125 10.0625 C22.165 10.0625 18.205 10.0625 14.125 10.0625 C14.455 10.7225 14.785 11.3825 15.125 12.0625 C17.14322917 11.96484375 19.16145833 11.8671875 21.1796875 11.76953125 C21.82164063 11.86621094 22.46359375 11.96289062 23.125 12.0625 C23.785 13.0525 24.445 14.0425 25.125 15.0625 C21.4356 17.5221 18.40667192 17.8621897 14.125 17.0625 C11.125 15 11.125 15 9.125 12.0625 C8.8125 8.25 8.8125 8.25 9.125 5.0625 C7.07810804 5.68878423 7.07810804 5.68878423 5.125 7.0625 C4.42323412 9.47929707 4.42323412 9.47929707 4.375 12.1875 C4.31828125 13.09757812 4.2615625 14.00765625 4.203125 14.9453125 C4.17734375 15.64398438 4.1515625 16.34265625 4.125 17.0625 C2.475 17.0625 0.825 17.0625 -0.875 17.0625 C-0.875 13.1025 -0.875 9.1425 -0.875 5.0625 C-2.525 5.7225 -4.175 6.3825 -5.875 7.0625 C-6.205 10.3625 -6.535 13.6625 -6.875 17.0625 C-8.195 17.0625 -9.515 17.0625 -10.875 17.0625 C-10.875 11.7825 -10.875 6.5025 -10.875 1.0625 C-8.895 1.0625 -6.915 1.0625 -4.875 1.0625 C-3.875 0.0625 -3.875 0.0625 0 0 Z " fill="#161616" transform="translate(50.875,16.9375)"/>
<path d="M0 0 C13.34916271 -0.36740815 13.34916271 -0.36740815 15.9375 1.09375 C17.54184575 3.97213503 17.28435886 6.42658514 17.1875 9.6875 C17.16042969 10.86699219 17.13335937 12.04648437 17.10546875 13.26171875 C17.07066406 14.16535156 17.03585938 15.06898437 17 16 C13.05979642 17.26086514 10.52419701 17 6 17 C6 27.23 6 37.46 6 48 C5.67 48 5.34 48 5 48 C5 37.44 5 26.88 5 16 C3.35 16 1.7 16 0 16 C0 10.72 0 5.44 0 0 Z " fill="#101010" transform="translate(78,18)"/>
<path d="M0 0 C3.73152858 1.17474048 5.26415485 1.76958156 7.375 5.0625 C8.17490863 9.07853612 7.99340725 12.03182124 5.875 15.5625 C2.38593127 17.65594124 -0.72409901 17.94309943 -4.625 17.0625 C-8.36695779 14.48990402 -9.43609157 13.02421566 -10.3125 8.5625 C-9.625 5.0625 -9.625 5.0625 -7.0625 2.0625 C-3.625 0.0625 -3.625 0.0625 0 0 Z " fill="#0C0C0C" transform="translate(105.625,16.9375)"/>
<path d="M0 0 C3.19588316 0.03448795 6.13691725 0.34672931 9.25 1.125 C9.25 2.445 9.25 3.765 9.25 5.125 C8.60546875 5.34929688 7.9609375 5.57359375 7.296875 5.8046875 C5.00611148 6.95389456 5.00611148 6.95389456 4.640625 9.5078125 C4.57101563 10.86519531 4.57101563 10.86519531 4.5 12.25 C4.44328125 13.16007812 4.3865625 14.07015625 4.328125 15.0078125 C4.30234375 15.70648438 4.2765625 16.40515625 4.25 17.125 C2.6 17.125 0.95 17.125 -0.75 17.125 C-0.75 13.165 -0.75 9.205 -0.75 5.125 C-2.4 5.785 -4.05 6.445 -5.75 7.125 C-6.08 10.425 -6.41 13.725 -6.75 17.125 C-8.07 17.125 -9.39 17.125 -10.75 17.125 C-10.75 11.845 -10.75 6.565 -10.75 1.125 C-8.77 1.125 -6.79 1.125 -4.75 1.125 C-3.75 0.125 -3.75 0.125 0 0 Z " fill="#202020" transform="translate(50.75,16.875)"/>
<path d="M0 0 C2.63350675 2.01664931 2.96440933 2.83498873 3.6875 6.1875 C3.790625 7.115625 3.89375 8.04375 4 9 C0.04 9 -3.92 9 -8 9 C-7.67 9.66 -7.34 10.32 -7 11 C-4.36 11 -1.72 11 1 11 C1.33 12.32 1.66 13.64 2 15 C-1.46530209 16.73265104 -5.21107035 16.4643626 -9 16 C-11.5625 14.5 -11.5625 14.5 -13 12 C-13.77813307 8.00285328 -13.60389013 5.0502437 -11.5625 1.5 C-7.8680751 -0.66259019 -4.18565586 -0.85563131 0 0 Z " fill="#111111" transform="translate(35,18)"/>
<path d="M0 0 C2.12890625 1.59765625 2.12890625 1.59765625 4 4 C4.390625 7.234375 4.390625 7.234375 4.25 10.75 C4.21390625 11.92046875 4.1778125 13.0909375 4.140625 14.296875 C4.07101563 15.63492188 4.07101563 15.63492188 4 17 C2.35 17 0.7 17 -1 17 C-1 13.04 -1 9.08 -1 5 C-2.98 5 -4.96 5 -7 5 C-7.33 8.96 -7.66 12.92 -8 17 C-9.32 17 -10.64 17 -12 17 C-12 11.72 -12 6.44 -12 1 C-2.56944444 -0.34722222 -2.56944444 -0.34722222 0 0 Z " fill="#0E0E0E" transform="translate(158,17)"/>
<path d="M0 0 C-0.33 1.32 -0.66 2.64 -1 4 C-3.31 4 -5.62 4 -8 4 C-8 4.33 -8 4.66 -8 5 C-5.69 5.66 -3.38 6.32 -1 7 C-0.34 6.34 0.32 5.68 1 5 C1.8125 8.25 1.8125 8.25 2 12 C0.125 14.4375 0.125 14.4375 -3 16 C-6.03295065 16.30886476 -8.96407263 16.23811195 -12 16 C-12.33 14.68 -12.66 13.36 -13 12 C-10.36 12 -7.72 12 -5 12 C-4.67 11.34 -4.34 10.68 -4 10 C-5.11375 9.855625 -6.2275 9.71125 -7.375 9.5625 C-11 9 -11 9 -13 8 C-13.33 8.66 -13.66 9.32 -14 10 C-14.33 7.69 -14.66 5.38 -15 3 C-9.84496602 -1.36195183 -6.50884505 -1.33069721 0 0 Z " fill="#181818" transform="translate(127,18)"/>
<path d="M0 0 C2.4375 1.5625 2.4375 1.5625 4 4 C3.9375 7.625 3.9375 7.625 3 11 C-0.46923881 13.31282587 -1.92205575 13.42478586 -6 13 C-7.875 11.9375 -7.875 11.9375 -9 10 C-9.63316583 4.09045226 -9.63316583 4.09045226 -7.875 1.0625 C-5.06487736 -0.52990283 -3.17235276 -0.45319325 0 0 Z " fill="#DD364B" transform="translate(21,36)"/>
<path d="M0 0 C1.65 0 3.3 0 5 0 C5 1.32 5 2.64 5 4 C6.32 4 7.64 4 9 4 C9 5.32 9 6.64 9 8 C7.68 8 6.36 8 5 8 C5 10.64 5 13.28 5 16 C6.65 16.33 8.3 16.66 10 17 C10 17.99 10 18.98 10 20 C3.51747312 20.36693548 3.51747312 20.36693548 1.28125 18.78125 C-0.3746715 16.47911524 -0.3094704 15.11781917 -0.1875 12.3125 C-0.16042969 11.50425781 -0.13335937 10.69601563 -0.10546875 9.86328125 C-0.05326172 8.94095703 -0.05326172 8.94095703 0 8 C-0.66 8 -1.32 8 -2 8 C-2 6.68 -2 5.36 -2 4 C-1.34 4 -0.68 4 0 4 C0 2.68 0 1.36 0 0 Z " fill="#0F0F0F" transform="translate(12,14)"/>
<path d="M0 0 C3.3 0 6.6 0 10 0 C10 0.99 10 1.98 10 3 C8.7934375 3.5259375 8.7934375 3.5259375 7.5625 4.0625 C4.79060479 5.72715724 4.79060479 5.72715724 4.4453125 8.4140625 C4.20978584 10.94775844 4.05249771 13.45624717 4 16 C2.68 16 1.36 16 0 16 C0 10.72 0 5.44 0 0 Z " fill="#020202" transform="translate(40,18)"/>
<path d="M0 0 C2.5 0.125 2.5 0.125 3.5 1.125 C3.57226502 2.97787502 3.5838122 4.83333878 3.5625 6.6875 C3.55347656 7.69941406 3.54445313 8.71132813 3.53515625 9.75390625 C3.52355469 10.53636719 3.51195313 11.31882812 3.5 12.125 C1.19 12.125 -1.12 12.125 -3.5 12.125 C-3.52687279 10.31257948 -3.54633715 8.50004767 -3.5625 6.6875 C-3.57410156 5.67816406 -3.58570312 4.66882813 -3.59765625 3.62890625 C-3.46606923 0.25501505 -3.37011816 0.16850591 0 0 Z " fill="#FCFCFC" transform="translate(86.5,21.875)"/>
<path d="M0 0 C2.64 0 5.28 0 8 0 C8.77842938 3.40562852 9.09978121 6.50765756 9 10 C5.125 9.125 5.125 9.125 4 8 C3.67 8.66 3.34 9.32 3 10 C2.01 10 1.02 10 0 10 C0 6.7 0 3.4 0 0 Z " fill="#292929" transform="translate(151,57)"/>
<path d="M0 0 C1.65 0 3.3 0 5 0 C4.85923685 1.9587043 4.7122324 3.91696093 4.5625 5.875 C4.48128906 6.96554688 4.40007813 8.05609375 4.31640625 9.1796875 C4 12 4 12 3 14 C3.66 14 4.32 14 5 14 C5 14.99 5 15.98 5 17 C3.35 17 1.7 17 0 17 C0 11.33333333 0 5.66666667 0 0 Z " fill="#95A2AA" transform="translate(16,49)"/>
<path d="M0 0 C1.32 0 2.64 0 4 0 C5.32 3.3 6.64 6.6 8 10 C5.0703125 9.56054688 5.0703125 9.56054688 2.140625 9.12109375 C-0.33941547 8.87452051 -0.33941547 8.87452051 -4 10 C-2.68 6.7 -1.36 3.4 0 0 Z " fill="#111111" transform="translate(142,57)"/>
<path d="M0 0 C4.55555556 0.55555556 4.55555556 0.55555556 6 2 C6.1875 4.4375 6.1875 4.4375 6 7 C4 9 4 9 1.4375 9.1875 C-1 9 -1 9 -2 8 C-2.1875 5.0625 -2.1875 5.0625 -2 2 C-1.34 1.34 -0.68 0.68 0 0 Z " fill="#EDEDED" transform="translate(103,21)"/>
<path d="M0 0 C1.65 0 3.3 0 5 0 C5.22786458 2.01822917 5.45572917 4.03645833 5.68359375 6.0546875 C5.91292961 8.07404316 5.91292961 8.07404316 7 10 C6.34 10.66 5.68 11.32 5 12 C4.67 11.01 4.34 10.02 4 9 C1.98491642 8.26676204 1.98491642 8.26676204 0 8 C0 5.36 0 2.72 0 0 Z " fill="#EBEBEB" transform="translate(17,22)"/>
<path d="M0 0 C0.33 0 0.66 0 1 0 C1 5.28 1 10.56 1 16 C0.67 16 0.34 16 0 16 C0 14.02 0 12.04 0 10 C-0.70125 10.33 -1.4025 10.66 -2.125 11 C-5.26003116 12.09044562 -7.70563182 12.15322643 -11 12 C-11.33 11.01 -11.66 10.02 -12 9 C-8.04 9 -4.08 9 0 9 C-0.33 7.68 -0.66 6.36 -1 5 C-0.5625 2.25 -0.5625 2.25 0 0 Z " fill="#D2D2D2" transform="translate(39,18)"/>
<path d="M0 0 C4.455 0.99 4.455 0.99 9 2 C8.67 2.99 8.34 3.98 8 5 C5.36 4.67 2.72 4.34 0 4 C-0.33 4.99 -0.66 5.98 -1 7 C-1.33 6.01 -1.66 5.02 -2 4 C-1.34 2.68 -0.68 1.36 0 0 Z " fill="#D4D4D4" transform="translate(114,26)"/>
<path d="M0 0 C3.96 0 7.92 0 12 0 C7.577168 3.317124 6.28089024 3.30466674 1 3 C0.67 2.01 0.34 1.02 0 0 Z " fill="#E4E4E4" transform="translate(65,27)"/>
<path d="M0 0 C2.64 0 5.28 0 8 0 C8.33 0.66 8.66 1.32 9 2 C8.01 3.485 8.01 3.485 7 5 C4.36 4.01 1.72 3.02 -1 2 C-0.67 1.34 -0.34 0.68 0 0 Z " fill="#EFEFEF" transform="translate(119,21)"/>
<path d="M0 0 C3.96 0 7.92 0 12 0 C7.859724 3.105207 6.90248464 3.63945452 2 3 C1.34 2.01 0.68 1.02 0 0 Z " fill="#E9E9E9" transform="translate(132,27)"/>
<path d="M0 0 C2.31 0 4.62 0 7 0 C6.34 1.32 5.68 2.64 5 4 C3.35 4 1.7 4 0 4 C0 2.68 0 1.36 0 0 Z " fill="#EFEFEF" transform="translate(116,57)"/>
<path d="M0 0 C1.98 0 3.96 0 6 0 C5.67 1.32 5.34 2.64 5 4 C3.35 4 1.7 4 0 4 C0 2.68 0 1.36 0 0 Z " fill="#F0F0F0" transform="translate(67,57)"/>
<path d="M0 0 C3.125 -0.1875 3.125 -0.1875 6 0 C6.33 0.99 6.66 1.98 7 3 C4.03 3 1.06 3 -2 3 C-1.34 2.01 -0.68 1.02 0 0 Z " fill="#FDFDFD" transform="translate(115,49)"/>
<path d="M0 0 C1.32 0 2.64 0 4 0 C4.33 0.99 4.66 1.98 5 3 C4.34 3 3.68 3 3 3 C3 3.99 3 4.98 3 6 C2.34 6 1.68 6 1 6 C-0.0625 4.125 -0.0625 4.125 -1 2 C-0.67 1.34 -0.34 0.68 0 0 Z " fill="#3E3E3E" transform="translate(142,57)"/>
<path d="M0 0 C2.4375 0.375 2.4375 0.375 5 1 C5.33 1.66 5.66 2.32 6 3 C3.36 3 0.72 3 -2 3 C-1.34 2.01 -0.68 1.02 0 0 Z " fill="#EFEFEF" transform="translate(134,21)"/>
<path d="M0 0 C1.65 0.33 3.3 0.66 5 1 C5 1.66 5 2.32 5 3 C2.69 3 0.38 3 -2 3 C-1.34 2.01 -0.68 1.02 0 0 Z " fill="#F3F3F3" transform="translate(67,21)"/>
<path d="M0 0 C2.4375 0.375 2.4375 0.375 5 1 C5.33 1.66 5.66 2.32 6 3 C3.69 3 1.38 3 -1 3 C-0.67 2.01 -0.34 1.02 0 0 Z " fill="#F3F3F3" transform="translate(28,21)"/>
</svg>
